<svg id="f952ffe6-0059-49b3-88a2-201cdf2aeb40" data-name="ec332450-0cf1-4b1d-9ddd-706dd00b35a1" xmlns="http://www.w3.org/2000/svg" width="4047.89" height="547.3" viewBox="0 0 4047.89 547.3">
  <g id="b5c9204a-aa26-490c-b1ea-ff164eabeefc" data-name="a4a79c26-3ca8-4125-815b-c5fdf57771c8">
    <g>
      <path d="M1311.13,189.2V14.46h61.39q92.32,0,92.33,85.18,0,40.81-25.2,65.19t-67.13,24.37Zm39-142.69V157.28h19.34q25.38,0,39.82-15.36t14.44-41.79q0-25-14.32-39.3t-40.18-14.32Z"/>
      <path d="M1509.2,44.68q-9.66,0-15.83-5.79a18.68,18.68,0,0,1-6.16-14.19,18.09,18.09,0,0,1,6.16-14.14q6.17-5.51,15.83-5.51t15.89,5.48a18.17,18.17,0,0,1,6.11,14.14,18.65,18.65,0,0,1-6.11,14.38Q1519,44.68,1509.2,44.68Zm18.86,144.52h-38.19V64.42h38.19Z"/>
      <path d="M1552.1,185.91V154.72a81.3,81.3,0,0,0,18.8,8.53,61.81,61.81,0,0,0,17.7,2.8q10.15,0,16-2.8t5.87-8.53a7.91,7.91,0,0,0-2.66-6.09,24.75,24.75,0,0,0-6.83-4.27,75.84,75.84,0,0,0-9.13-3.29q-5-1.45-9.54-3.29a91.58,91.58,0,0,1-13-6,37.4,37.4,0,0,1-9.43-7.5,29.46,29.46,0,0,1-5.8-9.87,39.65,39.65,0,0,1-2-13.28q0-10.47,4.54-18a37.21,37.21,0,0,1,12.08-12.37,55,55,0,0,1,17.3-7.13,89.6,89.6,0,0,1,20.25-2.25,109.51,109.51,0,0,1,16.67,1.28,123.58,123.58,0,0,1,16.68,3.71V96.1a59.85,59.85,0,0,0-15.53-6.39,65.12,65.12,0,0,0-16.25-2.13,35.73,35.73,0,0,0-7.07.67,22.43,22.43,0,0,0-5.86,2,10.65,10.65,0,0,0-4,3.29,7.6,7.6,0,0,0-1.45,4.56,8.45,8.45,0,0,0,2.17,5.85,18.8,18.8,0,0,0,5.68,4.21,56.64,56.64,0,0,0,7.8,3.17c2.86.93,5.7,1.89,8.52,2.86a110.46,110.46,0,0,1,13.77,5.85,44.09,44.09,0,0,1,10.58,7.43,29.28,29.28,0,0,1,6.77,10,35.92,35.92,0,0,1,2.35,13.65q0,11.1-4.77,19a38.35,38.35,0,0,1-12.69,12.8,57.55,57.55,0,0,1-18.25,7.19,100.44,100.44,0,0,1-21.45,2.25A109.53,109.53,0,0,1,1552.1,185.91Z"/>
      <path d="M1743.89,187.74q-8.46,4.51-25.5,4.51Q1678,192.25,1678,150V92.81h-20V64.42h20V37.49l38.07-11v37.9h27.79V92.78H1716.1v50.45q0,19.5,15.35,19.5a25.82,25.82,0,0,0,12.44-3.53Z"/>
      <path d="M1846.13,99.15a32.81,32.81,0,0,0-16.07-3.78q-12.45,0-19.46,9.2t-7,25v59.58h-38.18V64.42h38.18V87.58h.49q9.06-25.35,32.63-25.35a24.35,24.35,0,0,1,9.42,1.46Z"/>
      <path d="M1883.23,44.68q-9.66,0-15.83-5.79a18.68,18.68,0,0,1-6.16-14.19,18.09,18.09,0,0,1,6.16-14.14q6.16-5.47,15.83-5.48t15.9,5.48a18.19,18.19,0,0,1,6.1,14.14,18.68,18.68,0,0,1-6.1,14.38Q1893,44.68,1883.23,44.68Zm18.86,144.52H1863.9V64.42h38.19Z"/>
      <path d="M1972.9,174.7h-.48v14.5h-38.19V4.47h38.19V83.19h.48q14.14-21.81,40.25-21.81,23.92,0,36.86,16.57t12.93,45.33q0,31.2-15.11,50.08t-40.36,18.89Q1984.63,192.25,1972.9,174.7Zm-1.08-52.65v12.8q0,12.06,6.89,20a22.31,22.31,0,0,0,17.64,7.92q13.05,0,20.24-10.17t7.19-28.82q0-15.48-6.58-24.19t-18.8-8.71a24.18,24.18,0,0,0-19,8.65Q1971.81,108.19,1971.82,122.05Z"/>
      <path d="M2205.3,189.2h-38.07v-19h-.6q-14.15,22.07-37.83,22.06-43,0-43-52.52V64.42h38.07v71.9q0,26.44,20.78,26.44,10.28,0,16.44-7.25t6.16-19.68V64.42h38.07Z"/>
      <path d="M2256.78,44.68q-9.66,0-15.83-5.79a18.68,18.68,0,0,1-6.16-14.19A18.07,18.07,0,0,1,2241,10.56q6.16-5.47,15.83-5.48t15.89,5.48a18.17,18.17,0,0,1,6.11,14.14,18.68,18.68,0,0,1-6.16,14.35Q2266.56,44.68,2256.78,44.68Zm18.85,144.52h-38.18V64.42h38.18Z"/>
      <path d="M2428.87,189.2h-38.19V172.05h-.48q-13,20.23-38.31,20.23-23.2,0-37.34-16.51t-14.14-46.12q0-31,15.59-49.6t40.85-18.64q23.93,0,33.35,17.3h.48V4.47h38.19Zm-37.46-60.68v-9.38q0-12.19-7-20.23t-18.25-8q-12.69,0-19.82,10t-7.13,27.6q0,16.45,6.89,25.35t19.1,8.89a22.92,22.92,0,0,0,18.91-9.38q7.29-9.43,7.3-24.9Z"/>
      <path d="M2520,192.25q-30.93,0-48.64-17.49t-17.7-47.46q0-30.94,18.37-48.44t49.67-17.48q30.81,0,48.34,17.48t17.52,46.25q0,31.06-18.07,49.11T2520,192.25Zm1-101.38q-13.53,0-21,9.38t-7.49,26.56q0,36,28.76,36,27.43,0,27.44-36.92Q2548.63,90.87,2521,90.87Z"/>
      <path d="M2693.05,99.15A32.81,32.81,0,0,0,2677,95.37q-12.45,0-19.46,9.2t-7,25v59.58h-38.19V64.42h38.19V87.58h.49q9.06-25.35,32.63-25.35a24.54,24.54,0,0,1,9.42,1.46Z"/>
      <path d="M2813.78,189.2h-36.13V171.29h-.49q-12.45,21-36.86,21-18,0-28.34-10.3t-10.33-27.48q0-36.3,42.66-41.91l33.6-4.51q0-20.48-22-20.47t-42,13.28v-29q8-4.16,21.81-7.32a113.88,113.88,0,0,1,25.2-3.16q52.93,0,52.93,53.25Zm-35.89-50.69V130.1l-22.48,3q-18.61,2.43-18.61,16.94a14.05,14.05,0,0,0,4.53,10.78q4.53,4.2,12.27,4.2,10.76,0,17.52-7.49t6.77-19Z"/>
    </g>
    <g>
      <path d="M1508.6,488.68h-38.55V384.13q0-16.94,1.45-37.41h-1q-3,16.08-5.44,23.15l-40.6,118.81h-31.91l-41.3-117.63q-1.7-4.76-5.44-24.37h-1.08q1.56,25.83,1.57,45.33v96.63h-35.17V313.94h57.16l35.41,103.58a147.24,147.24,0,0,1,6.16,25h.73a252.81,252.81,0,0,1,6.89-25.23L1452.89,314h55.71Z"/>
      <path d="M1563.59,344.16q-9.67,0-15.84-5.79a18.72,18.72,0,0,1-6.16-14.19,18.09,18.09,0,0,1,6.16-14.14q6.16-5.49,15.84-5.48t15.89,5.48a18.19,18.19,0,0,1,6.1,14.14,18.66,18.66,0,0,1-6.1,14.37Q1573.38,344.16,1563.59,344.16Zm18.85,144.52h-38.19V363.9h38.19Z"/>
      <path d="M1735.92,474.43q0,34.72-19.94,53.8t-57.77,19.07q-25,0-39.64-7.19V507.69q19.1,11.22,38.55,11.21t30-10.29q10.64-10.31,10.64-28v-9.87h-.48q-13.07,21-38.56,21-23.68,0-37.58-16.82t-13.9-45.09q0-31.68,15.47-50.32t40.73-18.65q22.59,0,33.84,17.55h.48v-14.5H1736Zm-37.71-45.7v-9.87a30.44,30.44,0,0,0-7-20.17,22.41,22.41,0,0,0-18.06-8.35q-12.69,0-19.94,10T1646,428.48q0,15.6,6.89,24.68t18.86,9.08a23.3,23.3,0,0,0,19.15-9.2q7.3-9.19,7.31-24.31Z"/>
      <path d="M1885.41,488.68h-38.07v-19h-.6q-14.15,22.07-37.83,22.06-43,0-43-52.52V363.9H1804v71.9q0,26.44,20.78,26.44,10.28,0,16.44-7.25t6.16-19.68V363.9h38.07Z"/>
      <path d="M2028.74,437.26H1948q1.93,27.18,34,27.17,20.41,0,35.89-9.75v27.79q-17.16,9.25-44.59,9.26-30,0-46.53-16.76t-16.56-46.73q0-31.08,17.89-49.23t44-18.16q27.08,0,41.87,16.21t14.81,44Zm-35.41-23.64q0-26.81-21.51-26.81-9.19,0-15.89,7.68a34.88,34.88,0,0,0-8.16,19.13Z"/>
      <path d="M2089.65,488.68h-38.19V304h38.19Z"/>
      <path d="M2346.21,488.68h-42.54l-12.32-38.87h-61.64l-12.2,38.87h-42.3l63.08-174.74h46.29Zm-63.81-69.09-18.61-58.74a76.94,76.94,0,0,1-2.9-15.72h-1a67.12,67.12,0,0,1-3,15.24L2238,419.59Z"/>
      <path d="M2483.62,488.68h-38.07V419.35q0-29-20.54-29a20.3,20.3,0,0,0-16.32,7.68q-6.41,7.68-6.4,19.5v71.16H2364.1V363.9h38.19v19.74h.48q13.65-22.78,39.76-22.79,41.08,0,41.09,51.43Z"/>
      <path d="M2635.16,474.43q0,34.72-19.94,53.8t-57.76,19.07q-25,0-39.64-7.19V507.69q19.09,11.22,38.55,11.21t30-10.29q10.64-10.31,10.64-28v-9.87h-.49q-13,21-38.55,21-23.68,0-37.58-16.82t-13.9-45.09q0-31.68,15.47-50.32t40.72-18.65q22.61,0,33.84,17.55h.49v-14.5h38.18Zm-37.7-45.7v-9.87a30.49,30.49,0,0,0-6.95-20.17,22.42,22.42,0,0,0-18.07-8.35q-12.69,0-19.94,10t-7.25,28.14q0,15.6,6.89,24.68t18.85,9.08a23.33,23.33,0,0,0,19.16-9.2Q2597.46,443.85,2597.46,428.73Z"/>
      <path d="M2778.25,437.26h-80.73q1.93,27.18,34,27.17,20.43,0,35.9-9.75v27.79q-17.18,9.25-44.6,9.26-30,0-46.53-16.76t-16.55-46.73q0-31.08,17.88-49.23t44-18.16q27.08,0,41.88,16.21t14.8,44Zm-35.41-23.64q0-26.81-21.51-26.81-9.18,0-15.89,7.68a35,35,0,0,0-8.16,19.13Z"/>
      <path d="M2839.16,488.68H2801V304h38.19Z"/>
      <path d="M3067.57,482.47q-19,9.25-49.55,9.26-39.89,0-62.72-23.64t-22.84-63q0-41.93,25.68-68t66.65-26q25.38,0,42.78,6.46v37.9q-17.4-10.49-39.64-10.48-24.42,0-39.4,15.48t-15,41.92q0,25.34,14.14,40.39t38.06,15a80.79,80.79,0,0,0,41.82-11.21Z"/>
      <path d="M3153,491.73q-30.95,0-48.64-17.49t-17.71-47.46q0-30.94,18.37-48.44t49.67-17.49q30.81,0,48.34,17.49t17.52,46.25q0,31.07-18.06,49.1T3153,491.73Zm1-101.39q-13.53,0-21,9.39t-7.5,26.56q0,36,28.77,35.95,27.42,0,27.43-36.92,0-35-27.7-35Z"/>
      <path d="M3364.86,488.68h-38.07V419.35q0-29-20.54-29a20.3,20.3,0,0,0-16.32,7.68q-6.41,7.68-6.4,19.5v71.16h-38.19V363.9h38.19v19.74h.48q13.65-22.78,39.76-22.79,41.08,0,41.09,51.43Z"/>
      <path d="M3469.88,487.22q-8.46,4.5-25.5,4.51-40.37,0-40.37-42.29V392.29h-20V363.9h20V337l38.07-11v37.9h27.8v28.39h-27.8v50.45q0,19.5,15.35,19.5a25.75,25.75,0,0,0,12.45-3.53Z"/>
      <path d="M3572.12,398.63a33,33,0,0,0-16.12-3.78q-12.45,0-19.45,9.2t-7,25v59.59h-38.19V363.9h38.19v23.15h.48q9.06-25.33,32.63-25.34a24.43,24.43,0,0,1,9.43,1.46Z"/>
      <path d="M3706.65,437.59h-80.73q1.93,27.18,34,27.17,20.43,0,35.89-9.75V482.8q-17.16,9.26-44.59,9.26-30,0-46.53-16.76t-16.55-46.73q0-31.08,17.88-49.23t44-18.16q27.09,0,41.88,16.21t14.8,44ZM3671.24,414q0-26.81-21.51-26.81-9.18,0-15.89,7.68a35.09,35.09,0,0,0-8.16,19.13Z"/>
      <path d="M3810.1,399a33,33,0,0,0-16.07-3.78q-12.45,0-19.46,9.2t-7,25V489h-38.16V364.23h38.19v23.15h.48q9.08-25.32,32.63-25.34a24.4,24.4,0,0,1,9.43,1.46Z"/>
      <path d="M3930.83,489h-36.14V471.1h-.48q-12.45,21-36.86,21-18,0-28.34-10.3t-10.33-27.48q0-36.3,42.66-41.92l33.6-4.51q0-20.46-22-20.47t-42.05,13.29v-29q8-4.14,21.81-7.31a114.48,114.48,0,0,1,25.2-3.17q52.92,0,52.93,53.26Zm-35.89-50.69v-8.41l-22.48,2.93q-18.61,2.43-18.61,16.93a14.06,14.06,0,0,0,4.53,10.79q4.53,4.2,12.27,4.2,10.74,0,17.52-7.49T3894.94,438.32Z"/>
      <path d="M3952.94,485.72V454.53a80.88,80.88,0,0,0,18.8,8.53,61.52,61.52,0,0,0,17.7,2.8q10.17,0,16-2.8t5.86-8.53a7.9,7.9,0,0,0-2.65-6.1,25,25,0,0,0-6.83-4.26,75.84,75.84,0,0,0-9.13-3.29q-5-1.47-9.54-3.29a90.48,90.48,0,0,1-13-6,37.75,37.75,0,0,1-9.42-7.5,29.36,29.36,0,0,1-5.8-9.87,39.9,39.9,0,0,1-2-13.28q0-10.47,4.54-18a37.27,37.27,0,0,1,12.08-12.36,55.28,55.28,0,0,1,17.28-7.07,90.1,90.1,0,0,1,20.24-2.26,112.16,112.16,0,0,1,16.68,1.28,126.23,126.23,0,0,1,16.66,3.65v29.73a60.55,60.55,0,0,0-15.53-6.39,65.47,65.47,0,0,0-16.25-2.14,37.3,37.3,0,0,0-7.07.67,24,24,0,0,0-5.87,1.95,10.92,10.92,0,0,0-4,3.29,7.65,7.65,0,0,0-1.45,4.57,8.45,8.45,0,0,0,2.17,5.85,18.8,18.8,0,0,0,5.68,4.21,55.36,55.36,0,0,0,7.8,3.16c2.86.94,5.7,1.89,8.52,2.87a112,112,0,0,1,13.77,5.85,44.17,44.17,0,0,1,10.58,7.43c2.93,2.83,5.23,4.24,6.77,8a35.57,35.57,0,0,1,2.35,13.65c0,7.39-1.59,15.71-4.77,20.95a38.23,38.23,0,0,1-12.69,12.79,56.9,56.9,0,0,1-18.25,7.19,99.11,99.11,0,0,1-21.45,2.26A109.57,109.57,0,0,1,3952.94,485.72Z"/>
    </g>
  </g>
  <g>
    <polygon points="220.79 452.47 308.83 452.47 464.29 126.61 464.29 488.05 557.94 488.05 557.94 1.13 432.44 1.13 220.79 452.47"/>
    <polygon points="124.52 0 0 1.05 0 489.18 94.17 489.18 94.17 129.23 210.32 370.94 253.75 277.81 124.52 0"/>
    <path d="M830.3,96.79c48.18,0,89.2,24.32,118.27,58.3l71.72-71.95C974,32.19,903.93,1.05,830.3,1.05c-135.23,0-244.86,109.62-244.86,244.85S695.07,490.75,830.3,490.75c73.27,0,142.35-32.47,188.46-83.57-.52-.68-70.22-70.43-70.59-70A149.11,149.11,0,1,1,830.3,96.79Z"/>
    <rect x="1044.28" y="410.18" width="74.29" height="74.29"/>
  </g>
</svg>
