<svg id="a107fc86-63d9-4c9f-a3b5-8e33af6a3680" data-name="Capa 1" xmlns="http://www.w3.org/2000/svg" width="4174.52" height="547.3" viewBox="0 0 4174.52 547.3">
  <defs>
    <style>
      .b8830e11-593d-4978-a990-836f047509e9 {
        isolation: isolate;
      }
    </style>
  </defs>
  <g id="bdc62dc2-ae3f-447f-aecf-5587e8f20e25" data-name="Distribuidora Miguel Angel Contraerás copia 2" class="b8830e11-593d-4978-a990-836f047509e9">
    <g class="b8830e11-593d-4978-a990-836f047509e9">
      <path d="M1310.13,212.15V37.41h61.39q92.32,0,92.33,85.18,0,40.82-25.2,65.19t-67.13,24.37Zm39-142.69V180.23h19.34q25.38,0,39.82-15.36t14.44-41.79q0-25-14.32-39.3t-40.18-14.32Z" transform="translate(0 -22.95)"/>
      <path d="M1508.2,67.63q-9.66,0-15.83-5.79a18.69,18.69,0,0,1-6.16-14.19,18.06,18.06,0,0,1,6.16-14.14Q1498.54,28,1508.2,28t15.89,5.48a18.15,18.15,0,0,1,6.11,14.14A18.65,18.65,0,0,1,1524.09,62Q1518,67.63,1508.2,67.63Zm18.86,144.52h-38.19V87.37h38.19Z" transform="translate(0 -22.95)"/>
      <path d="M1551.1,208.86V177.67a81,81,0,0,0,18.8,8.53,61.72,61.72,0,0,0,17.7,2.8q10.15,0,16-2.8t5.87-8.53a7.91,7.91,0,0,0-2.66-6.09,24.72,24.72,0,0,0-6.83-4.27,77.42,77.42,0,0,0-9.13-3.29q-5-1.46-9.54-3.29a91,91,0,0,1-13-6,37.4,37.4,0,0,1-9.43-7.5,29.42,29.42,0,0,1-5.8-9.87,39.61,39.61,0,0,1-2-13.28q0-10.47,4.54-18a37.19,37.19,0,0,1,12.08-12.37A55,55,0,0,1,1585,86.58a89.65,89.65,0,0,1,20.25-2.25,110.48,110.48,0,0,1,16.67,1.28,123.92,123.92,0,0,1,16.68,3.71v29.73a60,60,0,0,0-15.53-6.39,65.09,65.09,0,0,0-16.25-2.13,35.43,35.43,0,0,0-7.07.67,22.53,22.53,0,0,0-5.86,2,10.65,10.65,0,0,0-4,3.29,7.58,7.58,0,0,0-1.45,4.56,8.46,8.46,0,0,0,2.17,5.85,18.82,18.82,0,0,0,5.68,4.21,56.52,56.52,0,0,0,7.8,3.17c2.86.93,5.7,1.89,8.52,2.86a110.69,110.69,0,0,1,13.77,5.85,44.07,44.07,0,0,1,10.58,7.43,29.34,29.34,0,0,1,6.77,10,35.82,35.82,0,0,1,2.35,13.65q0,11.1-4.77,19a38.35,38.35,0,0,1-12.69,12.8,57.46,57.46,0,0,1-18.25,7.19,100.56,100.56,0,0,1-21.45,2.25A109.66,109.66,0,0,1,1551.1,208.86Z" transform="translate(0 -22.95)"/>
      <path d="M1742.89,210.69q-8.46,4.51-25.5,4.51-40.37,0-40.36-42.28V115.76H1657V87.37H1677V60.44l38.07-11v37.9h27.79v28.39H1715.1v50.45q0,19.5,15.35,19.5a25.77,25.77,0,0,0,12.44-3.53Z" transform="translate(0 -22.95)"/>
      <path d="M1845.13,122.1a32.88,32.88,0,0,0-16.07-3.78q-12.45,0-19.46,9.2t-7,25v59.58h-38.18V87.37h38.18v23.16h.49q9.06-25.35,32.63-25.35a24.48,24.48,0,0,1,9.42,1.46Z" transform="translate(0 -22.95)"/>
      <path d="M1882.23,67.63q-9.66,0-15.83-5.79a18.69,18.69,0,0,1-6.16-14.19,18.06,18.06,0,0,1,6.16-14.14q6.16-5.47,15.83-5.48t15.9,5.48a18.17,18.17,0,0,1,6.1,14.14,18.68,18.68,0,0,1-6.1,14.38Q1892,67.63,1882.23,67.63Zm18.86,144.52H1862.9V87.37h38.19Z" transform="translate(0 -22.95)"/>
      <path d="M1971.9,197.65h-.48v14.5h-38.19V27.42h38.19v78.72h.48q14.14-21.81,40.25-21.81,23.92,0,36.86,16.57t12.93,45.33q0,31.2-15.11,50.08t-40.36,18.89Q1983.63,215.2,1971.9,197.65ZM1970.82,145v12.8q0,12.06,6.89,20a22.32,22.32,0,0,0,17.64,7.92q13.05,0,20.24-10.17t7.19-28.82q0-15.48-6.58-24.19t-18.8-8.71a24.17,24.17,0,0,0-19,8.65Q1970.81,131.13,1970.82,145Z" transform="translate(0 -22.95)"/>
      <path d="M2204.3,212.15h-38.07v-19h-.6q-14.15,22.07-37.83,22.06-43,0-43-52.52V87.37h38.07v71.9q0,26.44,20.78,26.44,10.27,0,16.44-7.25t6.16-19.68V87.37h38.07Z" transform="translate(0 -22.95)"/>
      <path d="M2255.78,67.63q-9.66,0-15.83-5.79a18.69,18.69,0,0,1-6.16-14.19A18.06,18.06,0,0,1,2240,33.51q6.16-5.47,15.83-5.48t15.89,5.48a18.15,18.15,0,0,1,6.11,14.14A18.65,18.65,0,0,1,2271.67,62Q2265.56,67.63,2255.78,67.63Zm18.85,144.52h-38.18V87.37h38.18Z" transform="translate(0 -22.95)"/>
      <path d="M2427.87,212.15h-38.19V195h-.48q-13,20.24-38.31,20.23-23.2,0-37.34-16.51t-14.14-46.12q0-31,15.59-49.6t40.85-18.64q23.93,0,33.35,17.3h.48V27.42h38.19Zm-37.46-60.68v-9.38q0-12.19-7-20.23t-18.25-8q-12.69,0-19.82,10.05t-7.13,27.6q0,16.46,6.89,25.35t19.1,8.89a22.92,22.92,0,0,0,18.91-9.38Q2390.4,166.94,2390.41,151.47Z" transform="translate(0 -22.95)"/>
      <path d="M2519,215.2q-30.93,0-48.64-17.49t-17.7-47.46q0-30.94,18.37-48.44t49.67-17.48q30.81,0,48.34,17.48t17.52,46.25q0,31.07-18.07,49.11T2519,215.2Zm1-101.38q-13.53,0-21,9.38t-7.49,26.56q0,36,28.76,36,27.43,0,27.44-36.92Q2547.64,113.81,2520,113.82Z" transform="translate(0 -22.95)"/>
      <path d="M2692.05,122.1a32.88,32.88,0,0,0-16.07-3.78q-12.45,0-19.46,9.2t-7,25v59.58h-38.19V87.37h38.19v23.16h.49q9.06-25.35,32.63-25.35a24.51,24.51,0,0,1,9.42,1.46Z" transform="translate(0 -22.95)"/>
      <path d="M2812.78,212.15h-36.13V194.24h-.49q-12.45,21-36.86,21-18,0-28.34-10.3t-10.33-27.48q0-36.3,42.66-41.91l33.6-4.51q0-20.48-22-20.47t-42,13.28v-29q8-4.16,21.81-7.32a113.86,113.86,0,0,1,25.2-3.16q52.93,0,52.93,53.25Zm-35.89-50.69v-8.41L2754.41,156q-18.61,2.43-18.61,16.94a14.05,14.05,0,0,0,4.53,10.78q4.53,4.2,12.27,4.2,10.76,0,17.52-7.49T2776.89,161.46Z" transform="translate(0 -22.95)"/>
    </g>
    <g class="b8830e11-593d-4978-a990-836f047509e9">
      <path d="M1507.6,511.63h-38.55V407.08q0-16.93,1.45-37.41h-1q-3,16.08-5.44,23.15l-40.6,118.81h-31.91L1350.25,394q-1.7-4.76-5.44-24.37h-1.08q1.56,25.83,1.57,45.33v96.63h-35.17V336.89h57.16l35.41,103.58a146.68,146.68,0,0,1,6.16,25h.73a250.94,250.94,0,0,1,6.89-25.23l35.41-103.33h55.71Z" transform="translate(0 -22.95)"/>
      <path d="M1562.59,367.11q-9.67,0-15.84-5.79a18.74,18.74,0,0,1-6.16-14.19,18.08,18.08,0,0,1,6.16-14.14q6.16-5.49,15.84-5.48t15.89,5.48a18.16,18.16,0,0,1,6.1,14.14,18.66,18.66,0,0,1-6.1,14.37Q1572.38,367.11,1562.59,367.11Zm18.85,144.52h-38.19V386.85h38.19Z" transform="translate(0 -22.95)"/>
      <path d="M1734.92,497.38q0,34.73-19.94,53.8t-57.77,19.07q-25,0-39.64-7.19V530.64q19.1,11.22,38.55,11.21t30-10.29q10.64-10.3,10.64-28v-9.87h-.48q-13.07,21-38.56,21-23.68,0-37.58-16.82t-13.9-45.09q0-31.68,15.47-50.32t40.73-18.65q22.59,0,33.84,17.55h.48v-14.5h38.19Zm-37.71-45.7v-9.87a30.47,30.47,0,0,0-7-20.17,22.4,22.4,0,0,0-18.06-8.35q-12.69,0-19.94,10T1645,451.43q0,15.6,6.89,24.68t18.86,9.08a23.3,23.3,0,0,0,19.15-9.2Q1697.21,466.8,1697.21,451.68Z" transform="translate(0 -22.95)"/>
      <path d="M1884.41,511.63h-38.07v-19h-.6q-14.15,22.06-37.83,22.06-43,0-43-52.52V386.85H1803v71.9q0,26.44,20.78,26.44,10.27,0,16.44-7.25t6.16-19.68V386.85h38.07Z" transform="translate(0 -22.95)"/>
      <path d="M2027.74,460.21H1947q1.93,27.18,34,27.17,20.41,0,35.89-9.75v27.79q-17.16,9.25-44.59,9.26-30,0-46.53-16.76t-16.56-46.73q0-31.08,17.89-49.23t44-18.16q27.07,0,41.87,16.21t14.81,44Zm-35.41-23.64q0-26.81-21.51-26.81-9.19,0-15.89,7.68a34.84,34.84,0,0,0-8.16,19.13Z" transform="translate(0 -22.95)"/>
      <path d="M2088.65,511.63h-38.19V326.9h38.19Z" transform="translate(0 -22.95)"/>
      <path d="M2345.21,511.63h-42.54l-12.32-38.87h-61.64l-12.2,38.87h-42.3l63.08-174.74h46.29Zm-63.81-69.09-18.61-58.74a76.64,76.64,0,0,1-2.9-15.72h-1a67.13,67.13,0,0,1-3,15.24l-18.85,59.22Z" transform="translate(0 -22.95)"/>
      <path d="M2482.62,511.63h-38.07V442.3q0-29-20.54-29a20.32,20.32,0,0,0-16.32,7.68q-6.41,7.68-6.4,19.5v71.16H2363.1V386.85h38.19v19.74h.48q13.65-22.79,39.76-22.79,41.08,0,41.09,51.43Z" transform="translate(0 -22.95)"/>
      <path d="M2634.16,497.38q0,34.73-19.94,53.8t-57.76,19.07q-25,0-39.64-7.19V530.64q19.09,11.22,38.55,11.21t30-10.29q10.63-10.3,10.64-28v-9.87h-.49q-13,21-38.55,21-23.68,0-37.58-16.82t-13.9-45.09q0-31.68,15.47-50.32t40.72-18.65q22.6,0,33.84,17.55h.49v-14.5h38.18Zm-37.7-45.7v-9.87a30.52,30.52,0,0,0-6.95-20.17,22.41,22.41,0,0,0-18.07-8.35q-12.69,0-19.94,10t-7.25,28.14q0,15.6,6.89,24.68t18.85,9.08a23.32,23.32,0,0,0,19.16-9.2Q2596.46,466.8,2596.46,451.68Z" transform="translate(0 -22.95)"/>
      <path d="M2777.25,460.21h-80.73q1.93,27.18,34,27.17,20.43,0,35.9-9.75v27.79q-17.18,9.25-44.6,9.26-30,0-46.53-16.76t-16.55-46.73q0-31.08,17.88-49.23t44-18.16q27.07,0,41.88,16.21t14.8,44Zm-35.41-23.64q0-26.81-21.51-26.81-9.18,0-15.89,7.68a35,35,0,0,0-8.16,19.13Z" transform="translate(0 -22.95)"/>
      <path d="M2838.16,511.63H2800V326.9h38.19Z" transform="translate(0 -22.95)"/>
      <path d="M3066.57,505.42q-19,9.25-49.55,9.26-39.89,0-62.72-23.64t-22.84-63q0-41.93,25.68-68T3023.79,334q25.38,0,42.78,6.46v37.9q-17.4-10.49-39.64-10.48-24.42,0-39.4,15.48t-15,41.92q0,25.33,14.14,40.39t38.06,15.05a80.73,80.73,0,0,0,41.82-11.21Z" transform="translate(0 -22.95)"/>
      <path d="M3152,514.68q-30.95,0-48.64-17.49t-17.71-47.46q0-30.94,18.37-48.44t49.67-17.49q30.81,0,48.34,17.49t17.52,46.25q0,31.07-18.06,49.1T3152,514.68Zm1-101.39q-13.53,0-21,9.39t-7.5,26.56q0,36,28.77,35.95,27.42,0,27.43-36.92Q3180.65,413.29,3153,413.29Z" transform="translate(0 -22.95)"/>
      <path d="M3363.86,511.63h-38.07V442.3q0-29-20.54-29a20.32,20.32,0,0,0-16.32,7.68q-6.41,7.68-6.4,19.5v71.16h-38.19V386.85h38.19v19.74h.48q13.65-22.79,39.76-22.79,41.08,0,41.09,51.43Z" transform="translate(0 -22.95)"/>
      <path d="M3468.88,510.17q-8.46,4.5-25.5,4.51-40.37,0-40.37-42.29V415.24H3383V386.85H3403V359.92l38.07-11v37.9h27.8v28.39h-27.8v50.45q0,19.5,15.35,19.5a25.78,25.78,0,0,0,12.45-3.53Z" transform="translate(0 -22.95)"/>
      <path d="M3571.12,421.58A32.92,32.92,0,0,0,3555,417.8q-12.45,0-19.45,9.2t-7,25v59.59h-38.19V386.85h38.19V410h.48q9.06-25.33,32.63-25.34a24.34,24.34,0,0,1,9.43,1.46Z" transform="translate(0 -22.95)"/>
      <path d="M3691.85,511.63h-36.14V493.72h-.48q-12.45,21-36.86,21-18,0-28.34-10.3T3579.7,476.9q0-36.31,42.66-41.92l33.59-4.51q0-20.46-22-20.47t-42.06,13.29v-29q8-4.14,21.82-7.31a113.83,113.83,0,0,1,25.19-3.17q52.93,0,52.94,53.26ZM3656,460.94v-8.41l-22.47,2.93q-18.61,2.43-18.62,16.93a14.07,14.07,0,0,0,4.54,10.79q4.53,4.2,12.26,4.2,10.76,0,17.53-7.49T3656,460.94Z" transform="translate(0 -22.95)"/>
      <path d="M3833.24,460.21h-80.73q1.93,27.18,34,27.17,20.43,0,35.89-9.75v27.79q-17.16,9.25-44.59,9.26-30,0-46.53-16.76t-16.55-46.73q0-31.08,17.88-49.23t44-18.16q27.08,0,41.88,16.21t14.8,44Zm-35.41-23.64q0-26.81-21.51-26.81-9.18,0-15.89,7.68a35,35,0,0,0-8.16,19.13Z" transform="translate(0 -22.95)"/>
      <path d="M3936.69,421.58a32.88,32.88,0,0,0-16.07-3.78q-12.45,0-19.46,9.2t-7,25v59.59H3856V386.85h38.19V410h.48q9.07-25.33,32.63-25.34a24.34,24.34,0,0,1,9.43,1.46Z" transform="translate(0 -22.95)"/>
      <path d="M4057.42,511.63h-36.14V493.72h-.48q-12.45,21-36.86,21-18,0-28.34-10.3t-10.33-27.48q0-36.31,42.66-41.92l33.6-4.51q0-20.46-22-20.47t-42.05,13.29v-29q8-4.14,21.81-7.31a113.85,113.85,0,0,1,25.2-3.17q52.92,0,52.93,53.26Zm-35.89-50.69v-8.41l-22.48,2.93q-18.62,2.43-18.61,16.93a14.06,14.06,0,0,0,4.53,10.79q4.53,4.2,12.27,4.2,10.74,0,17.52-7.49T4021.53,460.94Zm24.53-133.19-37.83,39.36h-27.55l31.42-39.36Z" transform="translate(0 -22.95)"/>
      <path d="M4079.53,508.34V477.15a81,81,0,0,0,18.8,8.53,61.72,61.72,0,0,0,17.7,2.8q10.16,0,16-2.8t5.86-8.53a7.94,7.94,0,0,0-2.65-6.1,24.94,24.94,0,0,0-6.83-4.26,75.67,75.67,0,0,0-9.13-3.29q-4.95-1.47-9.54-3.29a91.64,91.64,0,0,1-13-6,37.75,37.75,0,0,1-9.42-7.5,29.42,29.42,0,0,1-5.8-9.87,39.61,39.61,0,0,1-2-13.28q0-10.48,4.54-18a37.16,37.16,0,0,1,12.08-12.36,54.86,54.86,0,0,1,17.28-7.07,89.63,89.63,0,0,1,20.24-2.26,111.83,111.83,0,0,1,16.68,1.28A125.5,125.5,0,0,1,4167,388.8v29.73a60,60,0,0,0-15.53-6.39,65.11,65.11,0,0,0-16.25-2.14,36.19,36.19,0,0,0-7.07.67,23.52,23.52,0,0,0-5.87,1.95,10.79,10.79,0,0,0-4,3.29,7.61,7.61,0,0,0-1.45,4.57,8.46,8.46,0,0,0,2.17,5.85,18.82,18.82,0,0,0,5.68,4.21,55.31,55.31,0,0,0,7.8,3.16c2.86.94,5.7,1.89,8.52,2.87a111.34,111.34,0,0,1,13.77,5.85,44.07,44.07,0,0,1,10.58,7.43,29.38,29.38,0,0,1,6.77,10,35.82,35.82,0,0,1,2.35,13.65q0,11.08-4.77,18.95a38.41,38.41,0,0,1-12.69,12.79,57.23,57.23,0,0,1-18.25,7.19,99.92,99.92,0,0,1-21.45,2.26A109.9,109.9,0,0,1,4079.53,508.34Z" transform="translate(0 -22.95)"/>
    </g>
  </g>
  <g>
    <polygon points="220.79 452.47 308.83 452.47 464.29 126.61 464.29 488.05 557.94 488.05 557.94 1.13 432.44 1.13 220.79 452.47"/>
    <polygon points="124.52 0 0 1.05 0 489.18 94.17 489.18 94.17 129.23 210.32 370.94 253.75 277.81 124.52 0"/>
    <path d="M830.3,119.74c48.18,0,89.2,24.32,118.27,58.3l71.72-71.95C974,55.14,903.93,24,830.3,24,695.07,24,585.44,133.62,585.44,268.85S695.07,513.7,830.3,513.7c73.27,0,142.35-32.47,188.46-83.57-.52-.68-70.22-70.43-70.59-70A149.11,149.11,0,1,1,830.3,119.74Z" transform="translate(0 -22.95)"/>
    <rect x="1044.28" y="410.18" width="74.29" height="74.29"/>
  </g>
</svg>
